<?xml version="1.0" encoding="UTF-8"?>
<svg id="Layer_1" data-name="Layer 1" xmlns="http://www.w3.org/2000/svg" viewBox="0 0 1079.38 1052.4">
  <defs>
    <style>
      .cls-1 {
        fill: #300;
      }

      .cls-1, .cls-2 {
        stroke-width: 0px;
      }

      .cls-2 {
        fill: #ff9a00;
      }
    </style>
  </defs>
  <g id="Layer_2" data-name="Layer 2">
    <g id="Surfaces">
      <g id="Drawing_Surface" data-name="Drawing Surface">
        <g id="Outline_no_shadow" data-name="Outline no shadow">
          <rect id="rect8" class="cls-1" width="1079.38" height="1052.4" rx="191.14" ry="191.14"/>
        </g>
      </g>
    </g>
    <g id="Outlined_Mnemonics_Logos" data-name="Outlined Mnemonics Logos">
      <g id="Ai">
        <path id="path13" class="cls-2" d="M523.05,631.56h-167.26l-34.03,105.72c-.96,3.98-4.6,6.71-8.69,6.52h-84.72c-4.83,0-6.52-2.65-5.07-7.96l144.82-417.07c1.45-4.34,2.9-9.29,4.35-14.84,1.89-9.66,2.86-19.48,2.9-29.32-.35-2.45,1.35-4.72,3.8-5.07.42-.06.85-.06,1.27,0h115.13c3.37,0,5.3,1.21,5.79,3.62l164.37,463.41c1.45,4.83,0,7.24-4.35,7.24h-94.13c-3.34.37-6.44-1.8-7.24-5.07l-36.93-107.16ZM381.85,540.33h114.41c-2.9-9.65-6.28-20.51-10.14-32.58-3.87-12.06-7.97-24.97-12.31-38.74-4.35-13.76-8.69-27.51-13.04-41.27-4.34-13.76-8.33-27.03-11.95-39.82-3.62-12.78-6.88-24.49-9.77-35.12h-.72c-4.08,19.56-9.15,38.89-15.21,57.93-6.77,21.72-13.65,43.93-20.64,66.62-7,22.7-13.88,43.69-20.64,63h0Z"/>
        <path id="path15" class="cls-2" d="M763.44,346.28c-14.94.6-29.42-5.19-39.82-15.93-10.36-11.19-15.83-26.04-15.21-41.27-.53-15.1,5.39-29.72,16.29-40.19,10.78-10.35,25.25-15.95,40.19-15.57,17.38,0,31.02,5.19,40.91,15.57,10.09,10.89,15.43,25.35,14.84,40.19.61,15.3-5.01,30.19-15.57,41.27-11.05,10.89-26.14,16.66-41.63,15.93h0ZM713.47,736.56v-346.11c0-4.34,1.92-6.52,5.79-6.52h89.06c3.86,0,5.79,2.17,5.79,6.52v346.11c0,4.83-1.93,7.24-5.79,7.24h-88.34c-4.34,0-6.52-2.41-6.52-7.24Z"/>
      </g>
    </g>
  </g>
</svg>